# xmcd
#
# Track frame offsets:
#	265
#	11425
#	25302
#	42657
#	56750
#	71602
#	82325
#	94145
#	106522
#	120985
#	134280
#	145880
#	156777
#	169025
#	181082
#	195510
#	208120
#	219427
#	232812
#	244930
#	259215
#	270637
#	280965
#	300585
#	312900
#
# Disc length: 4401 seconds
#
# Revision: 9
# Processed by: cddbd v1.5.2PL0 Copyright (c) Steve Scherf et al.
# Submitted via: MusicWizard 7.2.0
#
DISCID=62112e19
DTITLE=Various Artist - Atlantic Rhythm And Blues 1947-1974 Volume 6 (1966-1969) (K)
DYEAR=1969
DGENRE=Soul
TTITLE0=Wilson Pickett - Land Of 1000 Dances
TTITLE1=Eddie Floyd - Knock On Wood
TTITLE2=Otis Redding - Try A Little Tenderness
TTITLE3=Wilson Pickett - Mustang Sally
TTITLE4=Sam and Dave - When Something Is Wrong With My Baby
TTITLE5=Arthur Conley - Sweet Soul Music
TTITLE6=Sam and Dave - Soul Man
TTITLE7=Aretha Franklin - I Never Loved A Man (The Way I Love You)
TTITLE8=Aretha Franklin - Do Right Woman-Do Right Man
TTITLE9=Joe Tex - Show Me
TTITLE10=Wilson Pickett - Funky Broadway
TTITLE11=Aretha Franklin - Respect
TTITLE12=Aretha Franklin - (You Make Me Feel Like) A Natural Woman
TTITLE13=Aretha Franklin - Baby I Love You
TTITLE14=Joe Tex - Skinny Legs And All
TTITLE15=Aretha Franklin - Chain Of Fools
TTITLE16=Wilson Pickett - I'm In Love
TTITLE17=King Curtis - Memphis Soul Stew
TTITLE18=Otis Redding - The Dock Of The Bay
TTITLE19=Archie Bell and The Drells - Tighten Up
TTITLE20=Clarence Carter - Slip Away
TTITLE21=Aretha Franklin - Think
TTITLE22=Roberta Flack - The First Time Ever I Saw Your Face
TTITLE23=R.B. Greaves - Take A Letter, Maria
TTITLE24=Brook Benton - Rainy Night In Georgia
EXTD=
EXTT0=
EXTT1=
EXTT2=
EXTT3=
EXTT4=
EXTT5=
EXTT6=
EXTT7=
EXTT8=
EXTT9=
EXTT10=
EXTT11=
EXTT12=
EXTT13=
EXTT14=
EXTT15=
EXTT16=
EXTT17=
EXTT18=
EXTT19=
EXTT20=
EXTT21=
EXTT22=
EXTT23=
EXTT24=
PLAYORDER=
